# Blender v2.93.4 OBJ File: ''
# www.blender.org
mtllib building2.mtl
o BrickBuildingFront_Plane
v -4.404428 0.000000 0.000000
v 3.595571 0.000000 0.000000
v -4.404428 7.465300 0.000000
v 3.595571 7.465300 0.000000
v -3.865565 0.000000 0.000000
v -2.643058 0.000000 0.000000
v -1.972935 0.000000 0.000000
v -0.739490 0.000000 0.000000
v -0.140466 0.000000 0.000000
v 1.142202 0.000000 0.000000
v 1.817794 0.000000 0.000000
v 3.077710 0.000000 0.000000
v 3.077710 7.465300 0.000000
v 1.817794 7.465300 0.000000
v 1.142202 7.465300 0.000000
v -0.140466 7.465300 0.000000
v -0.739490 7.465300 0.000000
v -1.972935 7.465300 0.000000
v -2.643058 7.465300 0.000000
v -3.865565 7.465300 0.000000
v -3.865565 0.000000 -0.332687
v -2.643058 0.000000 -0.332687
v -1.972935 0.000000 -0.332687
v -0.739490 0.000000 -0.332687
v -0.140466 0.000000 -0.332687
v 1.142202 0.000000 -0.332687
v 1.817794 0.000000 -0.332687
v 3.077710 0.000000 -0.332687
v 3.077710 7.246693 -0.332687
v 1.817794 7.246693 -0.332687
v 1.142202 7.246693 -0.332687
v -0.140466 7.246693 -0.332687
v -0.739490 7.246693 -0.332687
v -1.972935 7.246693 -0.332687
v -2.643058 7.246693 -0.332687
v -3.865565 7.246693 -0.332687
v -4.404428 7.996020 0.000000
v 3.595571 7.996020 0.000000
v 3.077710 7.996020 0.000000
v 1.817794 7.996020 0.000000
v 1.142202 7.996020 0.000000
v -0.140466 7.996020 0.000000
v -0.739490 7.996020 0.000000
v -1.972935 7.996020 0.000000
v -2.643058 7.996020 0.000000
v -3.865565 7.996020 0.000000
vt 0.937500 -0.000000
vt 1.000000 -0.000000
vt 1.000000 0.933594
vt 0.937500 0.933594
vt 0.000000 -0.000000
vt 0.066406 -0.000000
vt 0.066406 0.933594
vt 0.000000 0.933594
vt 0.691406 0.933594
vt 0.535156 0.933594
vt 0.535156 0.898438
vt 0.691406 0.898438
vt 0.218750 -0.000000
vt 0.304688 -0.000000
vt 0.304688 0.933594
vt 0.218750 0.933594
vt 0.042969 0.937500
vt 0.042969 0.000000
vt 0.000000 0.000000
vt 0.000000 0.906250
vt 0.460938 -0.000000
vt 0.535156 -0.000000
vt 0.460938 0.933594
vt 0.460938 1.000000
vt 0.304688 1.000000
vt 0.691406 -0.000000
vt 0.777344 -0.000000
vt 0.777344 0.933594
vt 0.042969 0.000000
vt 0.042969 0.937500
vt 0.000000 0.906250
vt 0.000000 0.000000
vt 0.066406 0.000000
vt 0.218750 0.000000
vt 0.218750 0.898438
vt 0.066406 0.898438
vt 0.304688 0.000000
vt 0.460938 0.000000
vt 0.460938 0.898438
vt 0.304688 0.898438
vt 0.535156 0.000000
vt 0.691406 0.000000
vt 0.777344 0.000000
vt 0.937500 0.000000
vt 0.937500 0.898438
vt 0.777344 0.898438
vt 0.042969 0.000000
vt 0.042969 0.937500
vt -0.000000 0.906250
vt -0.000000 0.000000
vt 0.066406 1.000000
vt 0.000000 1.000000
vt 0.042969 0.937500
vt 0.042969 0.000000
vt 0.000000 0.000000
vt 0.000000 0.906250
vt 0.042969 0.000000
vt 0.042969 0.937500
vt 0.000000 0.906250
vt 0.000000 0.000000
vt 0.937500 1.000000
vt 0.777344 1.000000
vt 0.042969 0.937500
vt 0.042969 0.000000
vt 0.000000 0.000000
vt 0.000000 0.906250
vt 0.042969 0.000000
vt 0.042969 0.937500
vt 0.000000 0.906250
vt 0.000000 0.000000
vt 0.535156 1.000000
vt 0.042969 0.937500
vt 0.042969 0.000000
vt 0.000000 0.000000
vt 0.000000 0.906250
vt 0.691406 1.000000
vt 0.218750 1.000000
vt 1.000000 1.000000
vn 0.0000 0.0000 1.0000
vn 0.0000 -0.8357 0.5491
vn 1.0000 0.0000 0.0000
vn -1.0000 0.0000 0.0000
usemtl brick_building
s off
f 12/1/1 2/2/1 4/3/1 13/4/1
f 1/5/1 5/6/1 20/7/1 3/8/1
f 15/9/2 16/10/2 32/11/2 31/12/2
f 6/13/1 7/14/1 18/15/1 19/16/1
f 18/17/3 7/18/3 23/19/3 34/20/3
f 8/21/1 9/22/1 16/10/1 17/23/1
f 18/15/1 17/23/1 43/24/1 44/25/1
f 10/26/1 11/27/1 14/28/1 15/9/1
f 6/29/4 19/30/4 35/31/4 22/32/4
f 21/33/1 22/34/1 35/35/1 36/36/1
f 23/37/1 24/38/1 33/39/1 34/40/1
f 25/41/1 26/42/1 31/12/1 32/11/1
f 27/43/1 28/44/1 29/45/1 30/46/1
f 8/47/4 17/48/4 33/49/4 24/50/4
f 3/8/1 20/7/1 46/51/1 37/52/1
f 16/53/3 9/54/3 25/55/3 32/56/3
f 17/23/2 18/15/2 34/40/2 33/39/2
f 10/57/4 15/58/4 31/59/4 26/60/4
f 14/28/1 13/4/1 39/61/1 40/62/1
f 14/63/3 11/64/3 27/65/3 30/66/3
f 19/16/2 20/7/2 36/36/2 35/35/2
f 12/67/4 13/68/4 29/69/4 28/70/4
f 17/23/1 16/10/1 42/71/1 43/24/1
f 20/72/3 5/73/3 21/74/3 36/75/3
f 13/4/2 14/28/2 30/46/2 29/45/2
f 15/9/1 14/28/1 40/62/1 41/76/1
f 19/16/1 18/15/1 44/25/1 45/77/1
f 16/10/1 15/9/1 41/76/1 42/71/1
f 13/4/1 4/3/1 38/78/1 39/61/1
f 20/7/1 19/16/1 45/77/1 46/51/1
