# Blender v2.93.4 OBJ File: ''
# www.blender.org
mtllib roadwalk.mtl
o SideWalk.001_Plane.002
v -3.992597 0.100000 1.000000
v 0.007403 0.100000 1.000000
v -3.992597 0.100000 0.000000
v 0.007403 0.100000 0.000000
v -3.992597 0.000000 1.000000
v 0.007403 0.000000 1.000000
vt 0.800000 0.906250
vt 0.000000 0.906250
vt 0.000000 0.000000
vt 0.800000 0.000000
vt 0.800000 1.000000
vt 0.000000 1.000000
vn 0.0000 1.0000 0.0000
vn 0.0000 0.0000 1.0000
usemtl sidewalk.001
s off
f 1/1/1 2/2/1 4/3/1 3/4/1
f 2/2/2 1/1/2 5/5/2 6/6/2
