# Blender v3.0.1 OBJ File: ''
# www.blender.org
mtllib trash.mtl
o Icosphere
v -0.046642 -0.330837 -0.001085
v 0.416277 -0.158866 0.301633
v 0.005797 -0.179283 0.326028
v -0.244288 -0.208897 0.302909
v -0.102746 -0.134685 -0.359061
v 0.334525 -0.215837 -0.126493
v 0.300574 0.195820 0.396079
v -0.357503 0.399556 0.082471
v -0.302416 0.313491 -0.162225
v 0.213837 0.377430 -0.287670
v 0.445270 0.313648 0.094030
v 0.061774 0.517425 0.034223
vt 0.181819 0.000000
vt 0.272728 0.157461
vt 0.090910 0.157461
vt 0.363637 0.000000
vt 0.454546 0.157461
vt 0.909091 0.000000
vt 1.000000 0.157461
vt 0.818182 0.157461
vt 0.727273 0.000000
vt 0.636364 0.157461
vt 0.545455 0.000000
vt 0.363637 0.314921
vt 0.181819 0.314921
vt 0.909091 0.314921
vt 0.727273 0.314921
vt 0.545455 0.314921
vt 0.000000 0.314921
vt 0.272728 0.472382
vt 0.090910 0.472382
vt 0.818182 0.472382
vt 0.636364 0.472382
vt 0.454546 0.472382
vn 0.0696 -0.9094 0.4102
vn 0.3084 -0.9489 0.0674
vn 0.0698 -0.9094 0.4101
vn -0.7416 -0.6305 -0.2292
vn 0.1000 -0.8659 -0.4901
vn 0.9765 -0.1340 -0.1686
vn 0.0693 -0.2355 0.9694
vn -0.1245 0.3174 0.9401
vn -0.9223 -0.3091 -0.2319
vn 0.4424 -0.1502 -0.8842
vn 0.8658 0.1558 0.4755
vn -0.3911 0.1374 0.9100
vn -0.9639 -0.2288 -0.1365
vn -0.2597 0.2890 -0.9214
vn 0.8571 0.0348 -0.5139
vn 0.3515 0.8028 0.4816
vn -0.1168 0.7028 0.7017
vn -0.2906 0.8803 -0.3750
vn -0.2209 0.8519 -0.4748
vn 0.4820 0.8636 -0.1479
usemtl Material.001
s off
f 1/1/1 2/2/1 3/3/1
f 2/2/2 1/4/2 6/5/2
f 1/6/3 3/7/3 4/8/3
f 1/9/4 4/8/4 5/10/4
f 1/11/5 5/10/5 6/5/5
f 2/2/6 6/5/6 11/12/6
f 3/3/7 2/2/7 7/13/7
f 4/8/8 3/7/8 8/14/8
f 5/10/9 4/8/9 9/15/9
f 6/5/10 5/10/10 10/16/10
f 2/2/11 11/12/11 7/13/11
f 3/3/12 7/13/12 8/17/12
f 4/8/13 8/14/13 9/15/13
f 5/10/14 9/15/14 10/16/14
f 6/5/15 10/16/15 11/12/15
f 7/13/16 11/12/16 12/18/16
f 8/17/17 7/13/17 12/19/17
f 9/15/18 8/14/18 12/20/18
f 10/16/19 9/15/19 12/21/19
f 11/12/20 10/16/20 12/22/20
